<svg width="43" height="33" viewBox="0 0 43 33" fill="none" xmlns="http://www.w3.org/2000/svg">
<path d="M7.94457 0L-2.01981e-07 4.9C1.65512 5.96667 3.24403 7.1 4.76674 8.3C6.22325 9.43333 7.58044 10.6333 8.83833 11.9C10.03 13.1 11.0231 14.3333 11.8175 15.6C12.5458 16.8667 13.0092 18.1333 13.2078 19.4L14.7968 18.2C14.1347 17.4667 13.3734 16.9667 12.5127 16.7C11.652 16.3667 10.5928 16.2 9.33487 16.2C6.75289 16.2 4.63433 17 2.97921 18.6C1.25789 20.1333 0.397226 22.1 0.397226 24.5C0.397226 26.7667 1.22479 28.7667 2.87991 30.5C4.53503 32.1667 6.85219 33 9.83141 33C12.7444 33 15.1609 32.1333 17.0808 30.4C19.0008 28.6667 19.9607 25.9333 19.9607 22.2C19.9607 20.2667 19.6959 18.3667 19.1663 16.5C18.5704 14.5667 17.7429 12.6667 16.6836 10.8C15.6243 8.93333 14.3664 7.1 12.9099 5.3C11.3872 3.43334 9.7321 1.66667 7.94457 0ZM30.9838 0L23.1386 4.9C24.7275 5.96667 26.2833 7.1 27.806 8.3C29.2625 9.43333 30.6197 10.6333 31.8776 11.9C33.0693 13.1 34.0624 14.3333 34.8568 15.6C35.6513 16.8667 36.1147 18.1333 36.2471 19.4L37.836 18.2C37.174 17.4667 36.4126 16.9667 35.552 16.7C34.6913 16.3667 33.632 16.2 32.3741 16.2C29.8584 16.2 27.7398 17 26.0185 18.6C24.2972 20.1333 23.4365 22.1 23.4365 24.5C23.4365 26.7667 24.2972 28.7667 26.0185 30.5C27.6736 32.1667 29.9577 33 32.8707 33C35.8499 33 38.2995 32.1333 40.2194 30.4C42.0731 28.6667 43 25.9333 43 22.2C43 20.2667 42.7352 18.3667 42.2055 16.5C41.6097 14.5667 40.7821 12.6667 39.7229 10.8C38.6636 8.93333 37.4057 7.1 35.9492 5.3C34.4265 3.43334 32.7714 1.66667 30.9838 0Z" fill="#E5E5E5"/>
</svg>
