<svg width="45" height="34" viewBox="0 0 45 34" fill="none" xmlns="http://www.w3.org/2000/svg">
<path d="M36.2 0.100006L44.2 5.00001C42.5333 6.06667 40.9333 7.2 39.4 8.40001C37.9333 9.53334 36.5667 10.7333 35.3 12C34.1 13.2 33.1 14.4333 32.3 15.7C31.5667 16.9667 31.1 18.2333 30.9 19.5L29.3 18.3C29.9667 17.5667 30.7333 17.0667 31.6 16.8C32.4667 16.4667 33.5333 16.3 34.8 16.3C37.4 16.3 39.5333 17.1 41.2 18.7C42.9333 20.2333 43.8 22.2 43.8 24.6C43.8 26.8667 42.9667 28.8667 41.3 30.6C39.6333 32.2667 37.3 33.1 34.3 33.1C31.3667 33.1 28.9333 32.2333 27 30.5C25.0667 28.7667 24.1 26.0333 24.1 22.3C24.1 20.3667 24.3667 18.4667 24.9 16.6C25.5 14.6667 26.3333 12.7667 27.4 10.9C28.4667 9.03334 29.7333 7.20001 31.2 5.40001C32.7333 3.53334 34.4 1.76668 36.2 0.100006ZM13 0.100006L20.9 5.00001C19.3 6.06667 17.7333 7.2 16.2 8.40001C14.7333 9.53334 13.3667 10.7333 12.1 12C10.9 13.2 9.89999 14.4333 9.09999 15.7C8.29999 16.9667 7.83333 18.2333 7.69999 19.5L6.09999 18.3C6.76666 17.5667 7.53333 17.0667 8.39999 16.8C9.26666 16.4667 10.3333 16.3 11.6 16.3C14.1333 16.3 16.2667 17.1 18 18.7C19.7333 20.2333 20.6 22.2 20.6 24.6C20.6 26.8667 19.7333 28.8667 18 30.6C16.3333 32.2667 14.0333 33.1 11.1 33.1C8.09999 33.1 5.63333 32.2333 3.69999 30.5C1.83333 28.7667 0.899994 26.0333 0.899994 22.3C0.899994 20.3667 1.16666 18.4667 1.69999 16.6C2.29999 14.6667 3.13333 12.7667 4.19999 10.9C5.26666 9.03334 6.53333 7.20001 7.99999 5.40001C9.53333 3.53334 11.2 1.76668 13 0.100006Z" fill="#E5E5E5"/>
</svg>
