<svg width="32" height="32" viewBox="0 0 32 32" fill="none" xmlns="http://www.w3.org/2000/svg">
<path fill-rule="evenodd" clip-rule="evenodd" d="M15.9997 2.65601C9.31099 2.65762 3.65862 7.61465 2.78402 14.2459C1.90942 20.8771 6.08329 27.1302 12.5428 28.8659C19.0023 30.6016 25.7483 27.2829 28.3152 21.1064C28.7694 20.0135 27.6806 18.9146 26.5836 19.3588C22.7078 20.9281 18.2641 19.5063 16.0192 15.9785C13.7743 12.4507 14.3684 7.82308 17.4316 4.97676L17.5349 4.87038C18.2694 4.03082 17.6851 2.66667 16.524 2.66667L16.1552 2.66494L16.078 2.65825L15.9997 2.65601ZM13.5426 5.60934L13.3912 5.87779C11.4493 9.42177 11.501 13.8454 13.7694 17.4101L13.9693 17.7136C16.2826 21.1062 20.1913 22.9121 24.1352 22.6319L24.364 22.6107L24.2902 22.7075C21.6962 25.9083 17.3914 27.4075 13.2348 26.2906C8.06721 24.902 4.72811 19.8996 5.42779 14.5946C6.00837 10.1926 9.22074 6.71277 13.3547 5.65496L13.5426 5.60934Z" fill="#1A163B"/>
</svg>
