<svg width="32" height="32" viewBox="0 0 32 32" fill="none" xmlns="http://www.w3.org/2000/svg">
<path fill-rule="evenodd" clip-rule="evenodd" d="M16 2.66669C16.6838 2.66669 17.2473 3.18141 17.3244 3.84453L17.3333 4.00002V5.33335C17.3333 6.06973 16.7364 6.66669 16 6.66669C15.3162 6.66669 14.7526 6.15197 14.6756 5.48885L14.6667 5.33335V4.00002C14.6667 3.26364 15.2636 2.66669 16 2.66669ZM25.5871 8.28389C25.9938 7.76083 25.9568 7.00452 25.4761 6.52388C24.9554 6.00318 24.1112 6.00318 23.5905 6.52388L22.6572 7.45721L22.5463 7.58282C22.1396 8.10588 22.1765 8.86218 22.6572 9.34283C23.1779 9.86353 24.0221 9.86353 24.5428 9.34283L25.4761 8.4095L25.5871 8.28389ZM8.28334 6.41309L8.40895 6.52401L9.34228 7.45734C9.86298 7.97804 9.86298 8.82226 9.34228 9.34296C8.86163 9.8236 8.10532 9.86058 7.58227 9.45388L7.45666 9.34296L6.52333 8.40963C6.00263 7.88893 6.00263 7.04471 6.52333 6.52401C6.96392 6.08342 7.63614 6.01563 8.14801 6.32066L8.28334 6.41309ZM5.33332 14.6667C6.0697 14.6667 6.66666 15.2636 6.66666 16C6.66666 16.6838 6.15194 17.2474 5.48882 17.3244L5.33332 17.3334H3.99999C3.26361 17.3334 2.66666 16.7364 2.66666 16C2.66666 15.3162 3.18138 14.7527 3.84449 14.6757L3.99999 14.6667H5.33332ZM24.4172 22.5463L24.5428 22.6572L25.4761 23.5905C25.9968 24.1112 25.9968 24.9555 25.4761 25.4762C24.9955 25.9568 24.2392 25.9938 23.7161 25.5871L23.5905 25.4762L22.6572 24.5428C22.1365 24.0221 22.1365 23.1779 22.6572 22.6572C23.0978 22.2166 23.77 22.1488 24.2819 22.4539L24.4172 22.5463ZM16 25.3334C16.6838 25.3334 17.2473 25.8481 17.3244 26.5112L17.3333 26.6667V28C17.3333 28.7364 16.7364 29.3334 16 29.3334C15.3162 29.3334 14.7526 28.8186 14.6756 28.1555L14.6667 28V26.6667C14.6667 25.9303 15.2636 25.3334 16 25.3334ZM9.4532 24.4175C9.8599 23.8944 9.82292 23.1381 9.34228 22.6575C8.82158 22.1368 7.97736 22.1368 7.45666 22.6575L6.52333 23.5908L6.41241 23.7164C6.00571 24.2395 6.04268 24.9958 6.52333 25.4764C7.04403 25.9971 7.88825 25.9971 8.40895 25.4764L9.34228 24.5431L9.4532 24.4175ZM29.3333 16C29.3333 15.2636 28.7364 14.6667 28 14.6667H26.6667L26.5112 14.6757C25.848 14.7527 25.3333 15.3162 25.3333 16C25.3333 16.7364 25.9303 17.3334 26.6667 17.3334H28L28.1555 17.3244C28.8186 17.2474 29.3333 16.6838 29.3333 16ZM16 9.33335C12.3181 9.33335 9.33332 12.3181 9.33332 16C9.33332 19.6819 12.3181 22.6667 16 22.6667C19.6819 22.6667 22.6667 19.6819 22.6667 16C22.6667 12.3181 19.6819 9.33335 16 9.33335ZM16 12C18.2091 12 20 13.7909 20 16C20 18.2092 18.2091 20 16 20C13.7909 20 12 18.2092 12 16C12 13.7909 13.7909 12 16 12Z" fill="white"/>
</svg>
