<svg width="88" height="88" viewBox="0 0 88 88" fill="none" xmlns="http://www.w3.org/2000/svg">
<path fill-rule="evenodd" clip-rule="evenodd" d="M0.666656 44C0.666656 67.92 20.0367 87.3333 44 87.3333C67.92 87.3333 87.3333 67.92 87.3333 44C87.3333 20.0366 67.92 0.666626 44 0.666626C20.0367 0.666626 0.666656 20.0366 0.666656 44ZM9.33332 44C9.33332 24.8466 24.8467 9.33329 44 9.33329C63.11 9.33329 78.6667 24.8466 78.6667 44C78.6667 63.11 63.11 78.6666 44 78.6666C24.8467 78.6666 9.33332 63.11 9.33332 44ZM42.4045 65.3677C41.8431 65.1505 41.3338 64.8229 40.9214 64.4105C40.8653 64.3558 40.8111 64.3 40.7587 64.2432L23.5916 47.0761C21.8582 45.3428 21.8582 42.6128 23.5872 40.9228C25.2772 39.1894 28.0072 39.1894 29.7406 40.9184L39.6667 50.8446V26.6667C39.6667 24.24 41.5733 22.3333 44 22.3333C46.3833 22.3333 48.3333 24.24 48.3333 26.6667V50.7585L58.2114 40.8805C59.9014 39.1471 62.6314 39.1471 64.3647 40.8761C66.0547 42.5661 66.0547 45.2961 64.3647 47.0295L47.461 63.9331C46.6684 64.9841 45.41 65.6667 44 65.6667C43.9992 65.6667 43.9984 65.6667 43.9976 65.6667L43.998 65.6671C43.8678 65.6671 43.7382 65.6612 43.6095 65.6497C43.1861 65.6126 42.7818 65.5157 42.4045 65.3677Z" fill="#171717"/>
</svg>
